<?xml version="1.0" encoding="utf-8"?>
<!-- Generator: Adobe Illustrator 23.0.1, SVG Export Plug-In . SVG Version: 6.00 Build 0)  -->
<svg version="1.1" id="Layer_1" xmlns="http://www.w3.org/2000/svg" xmlns:xlink="http://www.w3.org/1999/xlink" x="0px" y="0px"
	 viewBox="0 0 256 228" style="enable-background:new 0 0 256 228;" xml:space="preserve">
<style type="text/css">
	.st0{fill:#FFFFFF;}
</style>
<g>
	<path class="st0" d="M73.9,0C67,0,60.2,3.9,56.7,9.9L2.6,104c-3.4,6-3.4,13.8,0,19.9l54.1,94c3.5,6,10.2,9.9,17.2,9.9h108.3
		c6.9,0,13.7-3.9,17.2-9.9l54.1-94c3.4-6,3.4-13.8,0-19.9l-54.1-94C195.8,3.9,189,0,182.1,0H73.9L73.9,0z M74.8,55
		c0.1,0,0.3,0,0.5,0H94c0.8,0,1.6,0.5,2,1.2l31.7,56.5c0.2,0.3,0.3,0.6,0.3,0.9c0-0.3,0.1-0.6,0.3-0.9l31.6-56.5
		c0.4-0.7,1.3-1.2,2.1-1.2h18.7c1.7,0,2.9,2.1,2.1,3.6l-30.9,55.3l30.9,55.2c0.8,1.5-0.4,3.7-2.1,3.6H162c-0.9,0-1.7-0.5-2.1-1.3
		L128.3,115c-0.2-0.3-0.3-0.6-0.3-0.9c0,0.3-0.1,0.6-0.3,0.9L96,171.5c-0.4,0.7-1.2,1.3-2,1.3H75.3c-1.7,0-3-2.2-2.1-3.6l30.9-55.2
		L73.2,58.6C72.4,57.2,73.3,55.3,74.8,55L74.8,55L74.8,55z"/>
</g>
</svg>
